<?xml version="1.0" encoding="utf-8"?>
<!-- Generator: Adobe Illustrator 21.0.0, SVG Export Plug-In . SVG Version: 6.00 Build 0)  -->
<svg version="1.1" id="Layer_1" xmlns="http://www.w3.org/2000/svg" xmlns:xlink="http://www.w3.org/1999/xlink" x="0px" y="0px"
	 viewBox="0 0 765.3 141.7" style="enable-background:new 0 0 765.3 141.7;" xml:space="preserve">
<g>
	<polygon points="107.7,81.4 107.5,81.4 95.2,42 68.6,42 68.6,99.7 86.1,99.7 86.1,60.7 86.3,60.7 98.4,99.7 125.2,99.7 125.2,42 
		107.7,42 	"/>
	<path d="M541,42l-13,57.7h16.3l2.7-11.3h15.8l2.5,11.3h18L570.4,42H541z M549.7,76.5l5.2-23.4h0.2l5.1,23.4H549.7z"/>
	<path d="M684.4,42H655l-13,57.7h16.3l2.7-11.3h15.8l2.5,11.3h18L684.4,42z M663.7,76.5l5.2-23.4h0.2l5.1,23.4H663.7z"/>
	<path d="M390.7,99.7H407l2.7-11.3h15.8l2.5,11.3h18L433.1,42h-29.4L390.7,99.7z M412.4,76.5l5.2-23.4h0.2l5.1,23.4H412.4z"/>
	<path d="M235,41.5h-16.9c-10.5,0-15,4.5-15,15v28.8v0c0,10.5,4.5,15,15,15H235c10.5,0,15-4.5,15-15v0V56.5
		C250,45.9,245.5,41.5,235,41.5z M232.5,82.8c0,3.3-2.7,5.9-5.9,5.9s-5.9-2.7-5.9-5.9V58.9c0-3.3,2.7-5.9,5.9-5.9s5.9,2.7,5.9,5.9
		V82.8z"/>
	<path d="M482.2,99.7h31.9c10.5,0,15-4.5,15-15v0V57c0-10.5-4.5-15-15-15h-31.9V99.7z M499.7,88.2V53.5h5.9c3.3,0,5.9,2.7,5.9,5.9
		v22.9c0,3.3-2.7,5.9-5.9,5.9H499.7z"/>
	<path d="M181.9,82.8c0,3.3-2.7,5.9-5.9,5.9s-5.9-2.7-5.9-5.9V58.9c0-3.3,2.7-5.9,5.9-5.9s5.9,2.7,5.9,5.9v6h17.5v-8.5
		c0-10.5-4.5-15-15-15h-16.9c-10.5,0-15,4.5-15,15v28.8v0c0,10.5,4.5,15,15,15h16.9c10.5,0,15-4.5,15-15v0v-8.5h-17.5V82.8z"/>
	<path d="M391.6,58.9v-2.4c0-10.5-4.5-15-15-15h-16.9c-10.5,0-15,4.5-15,15v5.4c0,10.5,4.5,15,15,15h14.4v6c0,3.3-2.7,5.9-5.9,5.9
		s-5.9-2.7-5.9-5.9h-17.5v2.4c0,10.5,4.5,15,15,15h16.9c10.5,0,15-4.5,15-15v-5.4c0-10.5-4.5-15-15-15h-14.4v-6
		c0-3.3,2.7-5.9,5.9-5.9s5.9,2.7,5.9,5.9L391.6,58.9z"/>
	<polygon points="271.9,87.7 271.9,42 254.4,42 254.4,99.7 286.8,99.7 286.8,87.7 	"/>
	<polygon points="464.5,87.7 464.5,42 447,42 447,99.7 479.5,99.7 479.5,87.7 	"/>
	<rect x="130.1" y="42" width="17.5" height="57.7"/>
	<polygon points="322.9,54 322.9,42 289.6,42 289.6,99.7 322.9,99.7 322.9,87.7 307,87.7 307,76.8 322.9,76.8 322.9,64.9 307,64.9 
		307,54 	"/>
</g>
<polygon points="623.4,81.4 623.3,81.4 611,42 584.4,42 584.4,99.7 601.9,99.7 601.9,60.7 602,60.7 614.1,99.7 640.9,99.7 640.9,42 
	623.4,42 "/>
<path d="M631.5,28.2c-1.1,7.5-4.3,10.8-10.2,10.8c-1.7,0-3.1-0.2-7.2-1.2c-4.6-1.1-6-1.3-7-1.3c-1.4,0-2.6,0.8-3.4,2.4
	c-1.6,0-5.1,0-6.6,0c1.5-7.5,4.5-10.8,10.2-10.8c1.5,0,2.7,0.2,6,0.9l4.2,0.9c2,0.5,3.5,0.7,4.3,0.7c1.5,0,2.3-0.6,3.1-2.4H631.5z"
	/>
<polygon points="623.4,81.4 623.3,81.4 611,42 584.4,42 584.4,99.7 601.9,99.7 601.9,60.7 602,60.7 614.1,99.7 640.9,99.7 640.9,42 
	623.4,42 "/>
</svg>
