<?xml version="1.0" encoding="UTF-8"?>
<svg width="23px" height="21px" viewBox="0 0 23 21" version="1.1" xmlns="http://www.w3.org/2000/svg" xmlns:xlink="http://www.w3.org/1999/xlink">
    <!-- Generator: Sketch 45.1 (43504) - http://www.bohemiancoding.com/sketch -->
    <title>Group 10</title>
    <desc>Created with Sketch.</desc>
    <defs></defs>
    <g id="Splash-Page" stroke="none" stroke-width="1" fill="none" fill-rule="evenodd">
        <g transform="translate(-1331.000000, -765.000000)" id="Group-10" fill="#000000">
            <g transform="translate(1332.000000, 766.000000)">
                <g id="Group-9">
                    <g id="Group-7" fill-rule="nonzero">
                        <path d="M-0.06,2.02743798 C-0.06,0.410658626 1.25065863,-0.9 2.86743798,-0.9 L18.812562,-0.9 C20.4293414,-0.9 21.74,0.410658626 21.74,2.02743798 L21.74,16.9605208 C21.74,18.5839503 20.4239503,19.9 18.8005208,19.9 L2.83430979,19.9 C1.23582663,19.9 -0.06,18.6041734 -0.06,17.0056902 L-0.06,2.02743798 Z M1.74,2.02743798 L1.74,17.0056902 C1.74,17.6100608 2.22993918,18.1 2.83430979,18.1 L18.8005208,18.1 C19.4298378,18.1 19.94,17.5898378 19.94,16.9605208 L19.94,2.02743798 C19.94,1.40477118 19.4352288,0.9 18.812562,0.9 L2.86743798,0.9 C2.24477118,0.9 1.74,1.40477118 1.74,2.02743798 Z" id="Path-4"></path>
                    </g>
                    <path d="M8.09866117,12.7813867 L8.29092363,12.9720721 C9.81878769,14.4874038 12.2826795,14.4874038 13.8105436,12.9720721 L13.894807,12.8884999 C13.9215967,12.8617636 13.9215967,12.8617636 13.9480505,12.8346949 C15.5034396,11.2331865 15.4660525,8.67401549 13.8645441,7.11862644 L13.7801843,7.03669597 C12.1759965,5.47870469 9.61337579,5.5133145 8.05184875,7.11406076 C6.50897676,8.69568342 6.52987291,11.2254665 8.09866117,12.7813867 Z M6.76337018,5.85715067 C9.0179867,3.54590733 12.718036,3.49593583 15.0342484,5.74544724 L15.1186082,5.82737771 C17.4332535,8.07536722 17.4872888,11.7741136 15.2392993,14.088759 C15.2010658,14.1278811 15.2010658,14.1278811 15.1623469,14.1665228 L15.0780835,14.2500951 C12.8484941,16.4613962 9.25297316,16.4613962 7.02338375,14.2500951 L6.83112129,14.0594097 C4.56063117,11.8075434 4.5303884,8.14621588 6.76337018,5.85715067 Z" id="Path-6" fill-rule="nonzero"></path>
                    <circle id="Oval-2" cx="17" cy="4" r="1"></circle>
                </g>
            </g>
        </g>
    </g>
</svg>