<?xml version="1.0" encoding="UTF-8"?>
<svg width="23px" height="21px" viewBox="0 0 23 21" version="1.1" xmlns="http://www.w3.org/2000/svg" xmlns:xlink="http://www.w3.org/1999/xlink">
    <!-- Generator: Sketch 45.1 (43504) - http://www.bohemiancoding.com/sketch -->
    <title>Group 7</title>
    <desc>Created with Sketch.</desc>
    <defs></defs>
    <g id="Splash-Page" stroke="none" stroke-width="1" fill="none" fill-rule="evenodd">
        <g transform="translate(-1353.000000, -765.000000)" id="Group-7" fill-rule="nonzero" fill="#000000">
            <g transform="translate(1353.000000, 766.000000)">
                <path d="M0.94,2.02743798 C0.94,0.410658626 2.25065863,-0.9 3.86743798,-0.9 L19.812562,-0.9 C21.4293414,-0.9 22.74,0.410658626 22.74,2.02743798 L22.74,16.9605208 C22.74,18.5839503 21.4239503,19.9 19.8005208,19.9 L3.83430979,19.9 C2.23582663,19.9 0.94,18.6041734 0.94,17.0056902 L0.94,2.02743798 Z M2.74,2.02743798 L2.74,17.0056902 C2.74,17.6100608 3.22993918,18.1 3.83430979,18.1 L19.8005208,18.1 C20.4298378,18.1 20.94,17.5898378 20.94,16.9605208 L20.94,2.02743798 C20.94,1.40477118 20.4352288,0.9 19.812562,0.9 L3.86743798,0.9 C3.24477118,0.9 2.74,1.40477118 2.74,2.02743798 Z" id="Path-4"></path>
                <path d="M0.953754753,2.62325195 L9.81683316,11.2913548 C11.0308327,12.478648 12.9673413,12.4903282 14.1955745,11.3177654 L22.5898165,3.30399744 L21.2087674,1.85737952 L12.8145254,9.87114748 C12.3659249,10.2994148 11.6586336,10.2951488 11.2152319,9.86150124 L2.35215345,1.19339844 L0.953754753,2.62325195 Z" id="Path-5"></path>
            </g>
        </g>
    </g>
</svg>